<?xml version="1.0" standalone="no"?>
<!DOCTYPE svg PUBLIC "-//W3C//DTD SVG 20010904//EN"
 "http://www.w3.org/TR/2001/REC-SVG-20010904/DTD/svg10.dtd">
<svg version="1.0" xmlns="http://www.w3.org/2000/svg"
 width="640.000000pt" height="640.000000pt" viewBox="0 0 640.000000 640.000000"
 preserveAspectRatio="xMidYMid meet">
<metadata>
Created by potrace 1.13, written by Peter Selinger 2001-2015
</metadata>
<g transform="translate(0.000000,640.000000) scale(0.100000,-0.100000)"
fill="#000000" stroke="none">
<path d="M3026 6113 c-4 -4 -35 -10 -69 -14 -140 -16 -343 -70 -457 -122 -25
-11 -67 -30 -95 -42 -314 -141 -636 -463 -799 -799 -63 -130 -118 -301 -141
-441 -9 -55 -21 -116 -26 -135 -12 -41 -6 -299 9 -385 43 -249 97 -398 241
-662 123 -226 213 -373 432 -713 331 -512 453 -720 600 -1025 140 -290 258
-597 329 -860 13 -44 27 -96 32 -115 5 -19 13 -53 18 -75 5 -22 21 -92 35
-155 15 -63 31 -134 35 -158 15 -88 33 -68 59 63 35 175 50 237 86 375 20 74
39 146 42 160 7 28 88 260 127 365 45 119 165 383 244 535 133 258 257 464
572 950 230 355 282 444 410 700 149 298 180 389 214 621 27 181 15 410 -30
606 -96 418 -384 820 -757 1056 -185 118 -449 214 -677 246 -47 7 -99 16 -116
22 -35 10 -307 12 -318 2z m843 -466 c42 -2 58 -8 72 -26 21 -26 25 -78 8
-115 -14 -29 -44 -33 -269 -36 -85 -1 -156 -3 -157 -4 -1 -1 -4 -151 -5 -334
l-3 -332 185 0 c154 -1 276 -5 348 -12 8 -1 27 -14 44 -30 31 -29 33 -49 12
-121 -11 -35 -78 -44 -316 -40 l-138 2 -1 -107 c-8 -1104 -15 -1679 -25 -1870
l-7 -132 -96 -70 c-53 -38 -105 -77 -116 -85 -11 -9 -53 -39 -92 -67 l-73 -50
-1 -207 c-4 -488 -4 -489 -61 -576 l-33 -50 -3 411 -2 411 -40 28 c-22 15 -40
32 -40 36 0 5 -6 9 -14 9 -7 0 -24 10 -37 23 -13 13 -51 43 -84 67 -33 24 -89
66 -123 94 l-64 51 6 1042 7 1041 -198 -1 c-163 -1 -204 1 -235 15 -41 18 -55
55 -43 115 12 64 58 72 408 73 l187 0 0 330 0 330 -137 1 c-163 1 -229 6 -263
22 -51 25 -62 104 -20 142 16 15 46 18 182 22 90 3 165 8 168 10 5 6 969 -4
1069 -10z"/>
<path d="M3105 5460 l-100 -5 -7 -47 c-5 -26 -7 -172 -6 -325 l3 -278 198 -3
197 -2 0 334 0 335 -92 -2 c-51 -1 -138 -4 -193 -7z"/>
<path d="M2935 4591 c-27 -3 -51 -10 -51 -16 -1 -5 -5 -49 -9 -97 l-7 -88 94
-1 c115 -1 148 -6 170 -26 56 -51 -9 -79 -184 -82 l-78 -1 0 -70 0 -70 63 0
c86 -1 179 -11 200 -22 9 -5 17 -19 17 -32 0 -42 -24 -51 -157 -55 l-123 -3 0
-74 0 -74 63 -1 c173 -3 207 -12 207 -55 0 -40 -31 -48 -217 -53 l-53 -1 0
-74 0 -74 125 -4 c138 -3 163 -14 151 -61 -7 -31 -29 -37 -164 -42 l-107 -5
-3 -70 -3 -70 73 -1 c123 -1 172 -9 192 -28 15 -15 16 -23 7 -40 -17 -30 -57
-39 -183 -40 l-88 -1 0 -70 c0 -38 1 -70 3 -71 1 0 59 -4 129 -8 70 -3 129 -9
132 -12 3 -3 9 -19 12 -36 6 -28 3 -32 -27 -41 -19 -6 -82 -12 -140 -14 l-106
-3 -7 -74 c-11 -131 -7 -346 7 -362 6 -9 41 -36 77 -61 36 -25 103 -75 149
-112 l83 -66 62 44 c33 25 107 78 163 118 l102 73 1 150 c0 83 3 538 6 1013
l6 862 -218 0 c-121 0 -241 2 -269 4 -27 2 -72 1 -100 -3z"/>
</g>
</svg>
